<svg id="Capa_1" enable-background="new 0 0 512.305 512.305" height="512" viewBox="0 0 512.305 512.305" width="512" xmlns="http://www.w3.org/2000/svg"><path d="m230.623 253.355c-7.463 0-14.482 2.921-19.765 8.225-10.945 10.989-10.945 28.87 0 39.859 5.283 5.304 12.303 8.225 19.765 8.225 7.463 0 14.482-2.921 19.766-8.225 10.945-10.989 10.945-28.871 0-39.86-5.283-5.303-12.303-8.224-19.766-8.224z"/><path d="m421.462 142.381-51.618-51.535-73.611 73.407c-17.547-13.062-38.776-20.122-61.137-20.122-27.519 0-53.323 10.692-72.66 30.105-12.727 12.777-22.301 27.842-28.456 44.776-3.104 8.539-11.117 13.983-19.941 13.548-29.006-1.429-57.353 9.497-77.75 29.978-48.023 48.216-48.023 126.668 0 174.884l38.607 38.763c23.198 23.291 54.158 36.118 87.178 36.118s63.979-12.827 87.178-36.118c20.381-20.462 31.255-48.881 29.834-77.968-.436-8.907 4.986-16.985 13.49-20.101 16.877-6.183 31.892-15.8 44.626-28.585 36.177-36.322 39.645-93.234 10.414-133.509zm-221.645 282.998c-2.927 2.915-6.756 4.372-10.585 4.372-3.849 0-7.697-1.472-10.628-4.414l-91.667-92.034c-5.846-5.87-5.827-15.367.043-21.213 5.868-5.845 15.366-5.828 21.213.043l91.667 92.034c5.846 5.869 5.827 15.366-.043 21.212zm71.827-102.77c0 .001 0 .001 0 0-10.954 10.998-25.522 17.055-41.021 17.055-15.498 0-30.066-6.057-41.021-17.054-22.571-22.663-22.571-59.538 0-82.2 10.954-10.998 25.522-17.055 41.021-17.055s30.067 6.057 41.021 17.054c22.572 22.663 22.572 59.538 0 82.2z"/><path d="m420.426 32.367 9.019-9.072-8.217-8.199c-5.865-5.852-15.363-5.84-21.213.024-5.852 5.864-5.841 15.362.023 21.213l9.628 9.606 10.248-12.968c.155-.216.326-.419.512-.604z"/><path d="m479.134 92.39-12.815 10.075 9.59 9.569c2.928 2.921 6.762 4.381 10.595 4.381 3.845 0 7.688-1.469 10.618-4.405 5.852-5.864 5.841-15.362-.023-21.213l-8.171-8.152-9.129 9.183c-.205.206-.428.394-.665.562z"/><path d="m390.992 69.568 51.618 51.536 23.709-18.639-56.653-56.526z"/><path d="m501.318 25.771-15.087-15.125c-6.748-6.766-15.444-10.646-23.88-10.646-6.292.005-12 2.265-16.074 6.363l-16.832 16.932 59.483 59.35 16.719-16.818c9.972-10.031 8.071-27.625-4.329-40.056z"/></svg>