<?xml version="1.0"?>
<svg xmlns="http://www.w3.org/2000/svg" viewBox="0 0 64 64" width="512" height="512"><g id="harmonica"><polygon points="60.77 15.51 57.23 19.05 54.41 16.22 16.22 54.41 19.05 57.23 15.51 60.77 3.49 48.74 4.91 47.33 6.32 45.92 8.44 45.21 10.57 47.34 12.69 49.46 14.81 48.75 48.75 14.81 49.46 12.69 47.34 10.57 45.21 8.44 45.92 6.32 47.33 4.91 48.74 3.49 60.77 15.51" style="fill:#a78966"/><circle cx="56" cy="54" r="2" style="fill:#ea348b"/><polygon points="54.41 16.22 57.23 19.05 19.05 57.23 16.22 54.41 54.41 16.22" style="fill:#57565c"/><circle cx="48" cy="56" r="2" style="fill:#ea348b"/><polygon points="49.46 12.69 48.75 14.81 14.81 48.75 12.69 49.46 10.57 47.34 11.98 45.92 45.92 11.98 47.34 10.57 49.46 12.69" style="fill:#c6c5ca"/><path d="M48.04,2.79l.7.7L47.33,4.91,45.92,6.32l-.71,2.12-2.12.71L9.15,43.09l-.71,2.12-2.12.71L4.91,47.33,3.49,48.74l-.7-.7a2,2,0,0,1,0-2.83L45.21,2.79A2,2,0,0,1,48.04,2.79Z" style="fill:#a78966"/><polygon points="47.34 10.57 45.92 11.98 11.98 45.92 10.57 47.34 8.44 45.21 9.15 43.09 43.09 9.15 45.21 8.44 47.34 10.57" style="fill:#c6c5ca"/><circle cx="20" cy="13" r="2" style="fill:#ea348b"/><circle cx="10" cy="28" r="1.994" style="fill:#ea348b"/><path d="M48.749,2.08a3,3,0,0,0-4.243,0L2.08,44.506a3,3,0,0,0,0,4.243L15.515,62.184,62.184,15.515ZM3.494,47.334a1,1,0,0,1,0-1.414L45.92,3.494a1,1,0,0,1,1.414,0L59.355,15.515l-2.121,2.121-2.828-2.828-39.6,39.6,2.828,2.828-2.121,2.121ZM55.82,19.05,19.05,55.82l-1.414-1.414,36.77-36.77Z"/><path d="M49.623,15.348l.977-2.931L45.483,7.3l-2.931.977L8.277,42.552,7.3,45.483,12.417,50.6l2.931-.977ZM12.957,48.312,9.588,44.943l.437-1.311L43.632,10.025l1.311-.437,3.369,3.369-.437,1.311L14.268,47.875Z"/><path d="M7.879,25.878a3,3,0,1,0,4.243,0h0l0,0L5.757,19.515l2.829-2.829L7.172,15.272,2.929,19.515l5.8,5.795A2.834,2.834,0,0,0,7.879,25.878Zm2.828,2.829a1.023,1.023,0,0,1-1.414,0,1,1,0,1,1,1.414-1.414h0a1,1,0,0,1,0,1.414Z"/><path d="M20,16a3,3,0,0,0,3-3V4h4V2H21v8.184A2.966,2.966,0,0,0,20,10a3,3,0,0,0,0,6Zm0-4a1,1,0,1,1-1,1A1,1,0,0,1,20,12Z"/><path d="M49,53.184A2.966,2.966,0,0,0,48,53a3,3,0,1,0,3,3V47h6v4.184A2.966,2.966,0,0,0,56,51a3,3,0,1,0,3,3V45H49ZM56,55a1,1,0,1,1,1-1A1,1,0,0,1,56,55Zm-8,2a1,1,0,1,1,1-1A1,1,0,0,1,48,57Z"/><rect x="4.615" y="45.628" width="2" height="2" transform="translate(-31.326 17.627) rotate(-45)"/><rect x="45.628" y="4.615" width="2" height="2" transform="translate(9.686 34.615) rotate(-45)"/><rect x="4.95" y="27.95" width="48" height="2" transform="translate(-11.991 28.95) rotate(-45)"/></g></svg>
